<?xml version="1.0" encoding="UTF-8"?>
<svg version="1.1" xmlns="http://www.w3.org/2000/svg" width="1080" height="1080">
<path d="M0 0 C0.67982321 -0.00560927 1.35964642 -0.01121854 2.06007033 -0.01699778 C4.34148477 -0.03093361 6.6218172 -0.01636485 8.90321589 -0.00196791 C10.56095799 -0.00614028 12.21869646 -0.01206515 13.87642676 -0.01958537 C18.45137736 -0.03521547 23.02599201 -0.02581391 27.60093737 -0.01247356 C32.57067749 -0.00235625 37.5403648 -0.01535466 42.5100975 -0.02544689 C51.22666788 -0.03992056 59.94313923 -0.03943893 68.65971422 -0.02925825 C81.62130984 -0.01416048 94.58282155 -0.02184649 107.54441656 -0.03409148 C129.34772003 -0.0539594 151.15098645 -0.05466174 172.95429468 -0.04378462 C173.95055347 -0.04328785 173.95055347 -0.04328785 174.96693869 -0.04278104 C175.96478748 -0.04228346 175.96478748 -0.04228346 176.98279484 -0.04177583 C197.23801913 -0.03168877 217.49322734 -0.02907489 237.74845362 -0.03386641 C239.10409689 -0.03417632 240.45974017 -0.03448495 241.81538345 -0.03479229 C247.26296006 -0.03603412 252.71053668 -0.03730878 258.15811328 -0.03863134 C273.38695959 -0.04229963 288.61580595 -0.04458184 303.84465265 -0.04577589 C304.53817576 -0.04583047 305.23169887 -0.04588506 305.94623783 -0.04594129 C328.04952964 -0.04757874 350.15281585 -0.04306909 372.2561059 -0.03437757 C372.97315383 -0.03409658 373.69020176 -0.03381558 374.42897841 -0.03352607 C386.07385016 -0.02894611 397.71872179 -0.02406834 409.3635934 -0.01916538 C455.55039278 0.00026042 501.73714578 -0.00064121 547.92394495 -0.02008772 C559.56289907 -0.02497236 571.20185319 -0.02981651 582.84080744 -0.03437757 C583.91574261 -0.03480026 583.91574261 -0.03480026 585.01239365 -0.03523149 C607.09235007 -0.0438544 629.17230263 -0.04751367 651.25226068 -0.04577589 C652.29178436 -0.04569438 652.29178436 -0.04569438 653.35230851 -0.04561123 C668.56415013 -0.04436139 683.77599134 -0.04182699 698.98783255 -0.03813388 C704.43058004 -0.03681727 709.87332754 -0.03556496 715.31607504 -0.03433103 C716.67012636 -0.03402148 718.02417767 -0.03370656 719.37822898 -0.03338625 C739.62881766 -0.02860908 759.87938822 -0.03268308 780.12997465 -0.04278104 C780.79414717 -0.04311222 781.45831969 -0.0434434 782.14261866 -0.04378462 C782.80556947 -0.04411535 783.46852027 -0.04444608 784.1515605 -0.04478683 C806.49540989 -0.05581171 828.83921258 -0.05177017 851.18305528 -0.03066164 C864.07265856 -0.0188873 876.96215127 -0.0181917 889.85175176 -0.03324634 C898.45105365 -0.04218482 907.05026649 -0.03669018 915.64955513 -0.01922726 C920.55611406 -0.00967072 925.46245257 -0.00654389 930.36900491 -0.02085119 C934.82814803 -0.03372189 939.28687416 -0.02835712 943.74598657 -0.00812855 C945.35338404 -0.00408289 946.96081562 -0.00680887 948.56818617 -0.01695231 C950.74493771 -0.02971961 952.92022987 -0.01795997 955.09691334 0 C956.90723855 0.00040655 956.90723855 0.00040655 958.754136 0.00082132 C962.76310161 0.60998767 964.9162184 1.96447291 968.04845667 4.50139666 C970.88423005 9.47559361 971.4803632 13.91544159 971.42318678 19.536057 C971.4272475 20.3196686 971.43130823 21.10328021 971.43549201 21.91063762 C971.44543182 24.53445703 971.43401356 27.15774068 971.42267847 29.78154802 C971.4254193 31.68255905 971.42947157 33.58356857 971.43472213 35.48457432 C971.44531519 40.7073862 971.43717574 45.9300271 971.42597163 51.15283155 C971.41713489 56.7863208 971.42557181 62.41978754 971.43183374 68.05327654 C971.44132831 79.0911425 971.43471526 90.12894314 971.4225708 101.16680425 C971.4089509 114.0250084 971.41058879 126.88319698 971.41270413 139.7414065 C971.41599169 163.385631 971.40307603 187.02981538 971.38285909 210.67402909 C971.36450717 232.23823847 971.35867241 253.80241469 971.3641305 275.36663103 C971.36447693 276.75013794 971.36482303 278.13364486 971.36516879 279.51715177 C971.36542528 280.54313817 971.36542528 280.54313817 971.36568695 281.58985157 C971.36654056 285.03328478 971.36736434 288.476718 971.36815596 291.92015123 C971.36831304 292.59954804 971.36847012 293.27894484 971.36863196 293.97892943 C971.37262763 312.0131337 971.36709309 330.04733365 971.35864466 348.08153629 C971.3574374 350.6685977 971.35623141 353.2556591 971.35502672 355.84272051 C971.35412141 357.75198553 971.35412141 357.75198553 971.35319782 359.69982156 C971.34932373 368.65617831 971.3497104 377.6125291 971.35161257 386.56888628 C971.35373901 397.49457508 971.34847691 408.42023207 971.33399902 419.34591192 C971.32677479 424.91731605 971.32266104 430.48867395 971.32724237 436.06008196 C971.33134006 441.16779133 971.32609315 446.27540557 971.3136163 451.38310057 C971.3107056 453.22365525 971.31109587 455.064219 971.31525937 456.90477127 C971.38279364 489.7618878 963.4182266 519.45481908 940.04845667 543.50139666 C938.92890589 544.73116228 938.92890589 544.73116228 937.78673792 545.98577166 C922.22928406 562.54610271 897.16097777 575.60667973 874.20344774 576.6279585 C873.20968746 576.62869747 872.21592718 576.62943645 871.19205296 576.63019782 C870.03593504 576.63347002 868.87981712 576.63674221 867.68866533 576.64011356 C866.42552462 576.63862994 865.16238391 576.63714631 863.86096621 576.63561773 C862.49447213 576.63757174 861.12797863 576.639961 859.76148599 576.6427457 C855.99522354 576.64914273 852.22898243 576.64930756 848.46271558 576.64846829 C844.36935831 576.64863785 840.27600868 576.65454466 836.18265522 576.65970916 C828.05882847 576.66903652 819.93500717 576.67295743 811.81117574 576.67522812 C802.08232128 576.67818985 792.35347406 576.6868871 782.6246234 576.6956424 C759.10816719 576.71648924 735.59170973 576.72695705 712.07524644 576.73577201 C700.95061972 576.73997825 689.82599353 576.74520028 678.70136725 576.75045654 C640.62208625 576.7683471 602.5428051 576.78334314 564.46352053 576.79077673 C562.07275964 576.79125149 559.68199874 576.79172738 557.29123785 576.79220439 C555.51283053 576.79255896 555.51283053 576.79255896 553.69849578 576.79292068 C547.69161425 576.79412188 541.68473273 576.79533733 535.6778512 576.79656267 C534.48576651 576.79680282 533.29368182 576.79704297 532.06547335 576.7972904 C493.41594587 576.80518318 454.76644909 576.82861441 416.11693502 576.86111862 C375.25669381 576.89541931 334.39647055 576.9151281 293.53621471 576.91842097 C289.05029876 576.91883851 284.56438283 576.91931807 280.07846689 576.91984415 C278.97390428 576.91996734 277.86934166 576.92009053 276.73130746 576.92021746 C258.95823119 576.9225492 241.18519058 576.93820772 223.41212702 576.958686 C205.54526238 576.97894565 187.67844055 576.98442062 169.81156655 576.97491536 C159.19915721 576.96970095 148.58689042 576.97557513 137.9745016 576.99745003 C130.88036218 577.01096681 123.78632078 577.00987335 116.69218036 576.99704808 C112.6534796 576.99015733 108.61505119 576.98946145 104.57637484 577.00660817 C74.13245069 577.12806999 74.13245069 577.12806999 61.04845667 572.50139666 C60.24363969 572.25700785 59.43882272 572.01261903 58.60961735 571.7608245 C42.51400683 566.79968348 29.38505958 557.7337442 17.04845667 546.50139666 C16.38458948 545.92002947 15.72072229 545.33866228 15.03673792 544.73967791 C-3.5277589 527.55994542 -14.93522284 499.37864445 -16.0439662 474.42096929 C-16.08055746 472.32437585 -16.08810827 470.22993425 -16.0829711 468.13303137 C-16.08605005 466.93997763 -16.08605005 466.93997763 -16.0891912 465.7228218 C-16.09482259 463.07130485 -16.09340877 460.41984049 -16.09198523 457.76831865 C-16.09457104 455.84266974 -16.0975848 453.91702136 -16.10098863 451.99137372 C-16.10903571 446.71015545 -16.11084691 441.4289508 -16.11158609 436.14772713 C-16.11344051 430.44832711 -16.12098951 424.74893409 -16.12772131 419.04953814 C-16.1412861 406.59552092 -16.14732568 394.14150692 -16.15173197 381.68748355 C-16.15449598 373.91309415 -16.15873348 366.13870598 -16.16323614 358.36431742 C-16.17542346 336.84171938 -16.18576111 315.31912295 -16.18911123 293.79652166 C-16.18933286 292.40603542 -16.18955465 291.01554917 -16.18977658 289.62506292 C-16.18999722 288.23126484 -16.19021771 286.83746675 -16.19043803 285.44366866 C-16.19088058 282.64756302 -16.1913277 279.85145738 -16.19177771 277.05535173 C-16.1918871 276.36208557 -16.19199649 275.66881941 -16.19210919 274.95454518 C-16.19574313 252.45477327 -16.21167924 229.95503352 -16.23496807 207.45527393 C-16.25955291 183.65993038 -16.2732766 159.86460892 -16.27447915 136.06925172 C-16.27539685 123.10014646 -16.28117366 110.13108336 -16.29929876 97.16198969 C-16.31466924 86.12519876 -16.31983808 75.08846303 -16.31156066 64.05166344 C-16.30764411 58.41854975 -16.30863284 52.78554734 -16.32261801 47.15244722 C-16.33529584 41.99899922 -16.33421354 36.84574683 -16.3220273 31.69229933 C-16.32005972 29.82504275 -16.32319728 27.95777261 -16.33187166 26.09053514 C-16.34289686 23.55753007 -16.3355241 21.02522364 -16.32348013 18.49223852 C-16.33107532 17.76294826 -16.33867052 17.03365799 -16.34649587 16.28226802 C-16.29832946 11.60782817 -15.56988715 8.39065214 -12.95154333 4.50139666 C-8.53647167 0.97664554 -5.61669656 0.00126137 0 0 Z M479.33751917 169.59905291 C472.65525328 178.07161871 470.27653205 188.89613085 467.48595667 199.12639666 C467.02350079 200.79455376 466.56033196 202.46251333 466.09655237 204.13030291 C464.39939971 210.25005223 462.72425596 216.37577247 461.04845667 222.50139666 C460.34609179 225.06490318 459.64361909 227.62837997 458.94103479 230.19182634 C455.90203105 241.28195437 452.86371825 252.37227096 449.83325243 263.46473551 C444.89850568 281.52547358 439.92815585 299.57579143 434.90001917 317.61077166 C434.64614498 318.52146914 434.39227079 319.43216661 434.13070345 320.37046099 C431.64371592 329.29016811 429.15323753 338.20889336 426.65747309 347.1261487 C425.73841575 350.41095864 424.82069184 353.69614027 423.90318918 356.98138475 C423.27194461 359.23940454 422.63864686 361.49684167 422.0052743 363.75426531 C421.62478277 365.11623402 421.24439522 366.47823179 420.8641305 367.84026384 C420.53584757 369.01240435 420.20756464 370.18454485 419.86933374 371.39220476 C416.78504583 383.07439601 417.26302225 393.09415928 423.33361292 403.75920916 C428.46688104 411.28037638 435.76674717 415.77360655 444.51720667 418.02874041 C453.95018124 419.79014461 462.02137976 418.01979389 470.31017542 413.18108416 C484.01954062 403.62369813 486.70178743 387.65226007 490.84533167 372.45452166 C491.31192688 370.75655465 491.77893892 369.05870214 492.24633265 367.36095476 C493.50646358 362.7795302 494.76115766 358.1966328 496.01490259 353.6134572 C497.33364136 348.79654628 498.65750707 343.98104527 499.98107386 339.16545916 C501.63675455 333.14039368 503.29196794 327.11520155 504.94500208 321.08940935 C508.89335269 306.69703626 512.85662074 292.30883517 516.82970667 277.92327166 C517.38132297 275.92573366 517.93293838 273.92819541 518.48455286 271.93065691 C520.35013649 265.17530719 522.21600813 258.42003702 524.08201075 251.66480303 C525.57603515 246.25597134 527.0694362 240.8469683 528.56193018 235.4377141 C529.01152513 233.80869462 529.4613531 232.17973943 529.911448 230.55085802 C531.29708111 225.53617397 532.67644543 220.51982461 534.04845667 215.50139666 C534.24115011 214.79846169 534.43384356 214.09552671 534.63237619 213.37129068 C535.19515714 211.31358368 535.75360053 209.25474982 536.3106637 207.19548845 C536.63165033 206.01335268 536.95263697 204.83121691 537.28335047 203.61325884 C539.76064188 193.5375472 539.0804764 184.12247605 533.81017542 175.05608416 C528.2230032 166.95406501 521.36431801 162.60668377 512.04845667 159.50139666 C498.64113216 158.42528245 489.48745826 160.75604577 479.33751917 169.59905291 Z M318.04845667 194.50139666 C318.04845667 195.16139666 318.04845667 195.82139666 318.04845667 196.50139666 C317.19380823 196.81270525 317.19380823 196.81270525 316.32189417 197.13030291 C313.25693553 198.97875734 311.63505618 201.52935296 309.67345667 204.43889666 C308.78702182 205.71604058 307.89890797 206.99202027 307.00939417 208.26702166 C306.53340784 208.95215837 306.05742151 209.63729509 305.56701136 210.34319353 C302.8736124 214.17111101 300.08308309 217.92709983 297.29845667 221.68889666 C296.09790121 223.31387107 294.89738078 224.93887138 293.69689417 226.56389666 C293.09457972 227.37858416 292.49226526 228.19327166 291.87169886 229.03264666 C290.06552405 231.47828668 288.26330025 233.92678302 286.46251917 236.37639666 C280.88143846 243.96666642 275.27964476 251.53878037 269.61095667 259.06389666 C255.21411182 277.25924045 255.21411182 277.25924045 252.04845667 299.50139666 C254.44123356 308.65097876 258.7596548 315.33878227 265.23595667 322.18889666 C269.63918166 326.89787054 273.75863025 331.7625214 277.80236292 336.78655291 C280.13676256 339.60813161 282.56836265 342.30730377 285.04845667 345.00139666 C290.73663164 351.18573643 296.11255862 357.61912855 301.18126917 364.32170916 C301.79744104 365.04100603 302.41361292 365.76030291 303.04845667 366.50139666 C303.70845667 366.50139666 304.36845667 366.50139666 305.04845667 366.50139666 C305.26501917 367.02991228 305.48158167 367.55842791 305.70470667 368.10295916 C311.17934248 377.8745475 321.19973196 387.16685001 331.95080042 390.36467791 C341.55025224 392.37846252 350.48541594 391.24746986 358.91564417 386.11077166 C366.2806107 380.55332438 372.27394091 372.68615877 374.04845667 363.50139666 C375.03020348 350.72259397 373.14242556 342.77185979 364.86095667 333.00139666 C362.94928681 330.81076248 361.00557832 328.65143556 359.04845667 326.50139666 C358.25568323 325.62225603 357.46290979 324.74311541 356.64611292 323.83733416 C355.17374141 322.20711614 353.69851338 320.57947318 352.22033167 318.95452166 C349.96023514 316.40175075 347.81248567 313.78121989 345.67345667 311.12639666 C340.72603836 305.00560835 335.41677743 299.2510187 330.04845667 293.50139666 C331.7312811 289.77385007 334.03784907 286.55086834 336.42345667 283.25139666 C336.86334925 282.63933367 337.30324183 282.02727068 337.75646448 281.39666033 C341.05273528 276.83050524 344.41361989 272.31463225 347.79845667 267.81389666 C348.29015345 267.15921404 348.78185022 266.50453142 349.2884469 265.83000994 C351.47695296 262.91735814 353.66651666 260.00562312 355.86632776 257.10149431 C357.74712234 254.61540898 359.61715176 252.12150242 361.48595667 249.62639666 C362.065068 248.86625261 362.64417933 248.10610857 363.24083948 247.32292986 C371.61267611 236.09595115 375.01207719 226.50223601 374.04845667 212.50139666 C372.26455628 203.67832175 366.30964848 196.09298516 358.93126917 191.05608416 C356.99807118 190.04059105 355.10405444 189.23341077 353.04845667 188.50139666 C351.95533167 188.08889666 350.86220667 187.67639666 349.73595667 187.25139666 C338.28488403 184.92236493 327.24512701 187.04463692 318.04845667 194.50139666 Z M588.25548792 198.45452166 C580.85022234 207.74310169 579.98964387 217.01735016 581.04845667 228.50139666 C581.95059804 231.84625928 583.21979038 234.57179862 585.04845667 237.50139666 C585.40681604 238.11885759 585.76517542 238.73631853 586.13439417 239.37249041 C587.24001902 241.23837586 587.24001902 241.23837586 589.04845667 243.50139666 C589.70845667 243.50139666 590.36845667 243.50139666 591.04845667 243.50139666 C591.40230433 244.33477556 591.40230433 244.33477556 591.76330042 245.18499041 C593.36123187 248.06515257 595.35346167 250.16508742 597.61095667 252.56389666 C601.06308238 256.27618257 604.36770851 260.04955804 607.54845667 264.00139666 C611.53852967 268.95336226 615.75203904 273.63163881 620.07970667 278.28655291 C622.04845667 280.50139666 622.04845667 280.50139666 623.04845667 282.50139666 C623.70845667 282.50139666 624.36845667 282.50139666 625.04845667 282.50139666 C624.67307085 287.89235415 621.54611664 291.14318962 618.29845667 295.18889666 C617.10490523 296.71065407 615.91356477 298.23414775 614.72423792 299.75920916 C614.1127389 300.54199236 613.50123987 301.32477556 612.87121058 302.13127947 C609.9885731 305.87955762 607.23506642 309.7171463 604.48595667 313.56389666 C601.27635195 318.05344989 598.05289437 322.52390155 594.70470667 326.91155291 C594.16402552 327.62110125 593.62334436 328.33064959 593.06627893 329.06169939 C592.05169602 330.38725597 591.03178938 331.70876418 590.00524378 333.0250783 C582.29845781 343.10028461 580.07050891 351.77430189 581.04845667 364.50139666 C581.92011731 368.14742858 583.23276072 371.22971811 585.04845667 374.50139666 C585.43775354 375.20909197 585.82705042 375.91678728 586.22814417 376.64592791 C590.82612043 383.76054798 598.12766523 387.97425449 606.10705042 390.45061541 C616.19794814 392.51078568 625.04109723 391.04471057 633.66173792 385.36077166 C642.3660174 378.57969632 648.3993584 369.04893308 654.72814417 360.14592791 C657.74857627 355.90102 660.84628683 351.72110065 663.98595667 347.56389666 C669.05175095 340.84720374 674.05347112 334.08537121 679.03283167 327.30437517 C682.31356534 322.84050861 685.62932878 318.4083979 688.98595667 314.00139666 C697.03155819 303.24396296 704.82480753 292.59217981 703.04845667 278.50139666 C701.10048245 269.19911395 696.50191681 262.8030383 690.36095667 255.75139666 C689.83348841 255.14086443 689.30602015 254.5303322 688.762568 253.901299 C684.91105518 249.45675234 680.99753903 245.07042862 677.04845667 240.71233416 C673.04542865 236.28711178 669.13851485 231.78086297 665.26330042 227.24358416 C664.23336796 226.03784178 663.20341962 224.83211298 662.17345667 223.62639666 C661.65452845 223.01860369 661.13560022 222.41081072 660.6009469 221.78459978 C656.86181041 217.41769088 653.02785176 213.1477461 649.15392542 208.89983416 C646.17011427 205.50083593 643.41690914 201.93471808 640.67736292 198.33733416 C640.13982386 197.73147478 639.60228479 197.12561541 639.04845667 196.50139666 C638.38845667 196.50139666 637.72845667 196.50139666 637.04845667 196.50139666 C637.04845667 195.84139666 637.04845667 195.18139666 637.04845667 194.50139666 C620.90758744 182.55000858 601.88002501 183.61297798 588.25548792 198.45452166 Z " fill="#455265" transform="translate(62.95154333114624,422.4986033439636)"/>
<path d="M0 0 C4.06754771 0.01024613 8.13503589 -0.00293172 12.2025749 -0.01297333 C19.3153381 -0.02735376 26.42797964 -0.02702294 33.54074829 -0.01678469 C44.11799276 -0.00160127 54.69513536 -0.00941736 65.27237923 -0.02161792 C84.16764192 -0.04264307 103.0628504 -0.04087042 121.95811821 -0.02930227 C138.49396116 -0.01922868 155.02978427 -0.01661854 171.56562965 -0.02139284 C173.21275305 -0.02185116 173.21275305 -0.02185116 174.89315167 -0.02231872 C179.35094624 -0.02356414 183.80874081 -0.02483774 188.26653535 -0.02615778 C230.05963266 -0.03838591 271.8526955 -0.02731241 313.64578749 -0.00577019 C350.75314531 0.01321135 387.86044822 0.01151281 424.96780556 -0.00761416 C466.68586365 -0.02904598 508.4038913 -0.0375186 550.12195414 -0.0251651 C554.57149188 -0.02388229 559.02102964 -0.02263092 563.4705674 -0.02139284 C565.11387753 -0.02091838 565.11387753 -0.02091838 566.79038585 -0.02043433 C583.31333518 -0.01588993 599.83626247 -0.0211953 616.35920876 -0.03131106 C635.15193165 -0.04275926 653.944592 -0.03986496 672.73730712 -0.01818808 C683.24694214 -0.00646445 693.75644161 -0.00564502 704.26607304 -0.02077278 C711.29508868 -0.02977222 718.32399614 -0.02410633 725.35299581 -0.0067537 C729.35179931 0.00271813 733.35033446 0.00610634 737.34912907 -0.00837763 C770.40926892 -0.11915763 796.7966869 5.34844887 823.01809853 26.51387022 C823.69872353 27.03851865 824.37934853 27.56316709 825.08059853 28.10371397 C840.47761014 40.39993852 851.12958721 60.4418886 856.76809853 78.95137022 C857.06635536 79.91587095 857.06635536 79.91587095 857.37063759 80.89985655 C860.83969971 92.99545866 861.31820337 105.36627932 861.30862587 117.86323545 C861.31462686 119.44998483 861.32143594 121.03673132 861.32898109 122.6234741 C861.34647147 126.88745787 861.35132872 131.15136116 861.35261267 135.41537736 C861.35404254 138.08461558 861.35832741 140.75383384 861.3636071 143.42306707 C861.3820388 152.74851386 861.39028483 162.07390386 861.38870399 171.39936826 C861.38749881 180.074689 861.40869232 188.74976251 861.44019132 197.42502061 C861.46634993 204.89712448 861.47707173 212.36914741 861.47579318 219.84129671 C861.47528418 224.29426479 861.48093528 228.7470118 861.50214928 233.19993398 C861.52152919 237.38049168 861.52165811 241.56061688 861.50711601 245.74118993 C861.50502773 247.27180996 861.50973003 248.80245711 861.52183693 250.33303068 C861.63148582 265.15742548 861.63148582 265.15742548 857.01809853 270.51387022 C852.5645942 273.2169099 849.25597692 273.88923301 844.07937925 273.89106838 C843.4009449 273.89539956 842.72251055 273.89973074 842.02351758 273.90419317 C839.74699952 273.91506159 837.47108716 273.90456009 835.19457405 273.89418695 C833.54024481 273.89761966 831.88591787 273.90236592 830.23159575 273.90830792 C825.66616761 273.92086275 821.10092538 273.91464734 816.53549623 273.90547424 C811.576029 273.89878578 806.61659457 273.90941979 801.65713423 273.91787008 C792.95860407 273.93026758 784.26012782 273.93143616 775.5615918 273.92531965 C762.62680888 273.91624854 749.69207605 273.9242445 736.75729699 273.93561089 C712.98750931 273.9558789 689.21774288 273.95733383 665.44794918 273.95196027 C662.07926344 273.95120457 658.71057769 273.95047695 655.34189194 273.9497783 C654.33826753 273.94956966 654.33826753 273.94956966 653.31436788 273.94935681 C638.49225788 273.94640562 623.67015089 273.9494162 608.84804144 273.95367459 C606.82000692 273.95425674 604.79197239 273.95482559 602.76393786 273.95539022 C597.32761514 273.95690514 591.89129243 273.95843205 586.45496972 273.95998322 C548.50089657 273.97074134 510.54682621 273.97544027 472.59275215 273.96751306 C471.87718661 273.96736476 471.16162108 273.96721645 470.42437174 273.96706365 C462.44485592 273.96540462 454.46534013 273.96365504 446.48582434 273.96187064 C445.76537607 273.96170962 445.0449278 273.96154859 444.30264777 273.96138269 C438.45515426 273.9600748 438.45515426 273.9600748 435.56198316 273.9594215 C389.47068036 273.94902817 343.37941574 273.95679942 297.28811806 273.98042295 C285.67322707 273.98636619 274.05833607 273.99225768 262.4434449 273.99783228 C261.37073198 273.99834793 261.37073198 273.99834793 260.2763481 273.998874 C238.24202504 274.00939851 216.20770517 274.01499527 194.17337959 274.01538942 C193.13600372 274.01540859 193.13600372 274.01540859 192.07767076 274.01542815 C176.89725626 274.01565643 161.71684203 274.01465053 146.53642768 274.0125191 C141.10492423 274.01176431 135.67342077 274.01108611 130.24191731 274.01043895 C128.89066341 274.01027626 127.53940951 274.01010859 126.18815561 274.00993593 C104.64168098 274.00721279 83.0952295 274.01577732 61.54875984 274.02979004 C39.25110453 274.04418499 16.95349329 274.04376119 -5.3441605 274.02641532 C-18.20710471 274.01682187 -31.06993596 274.01834907 -43.93287272 274.03565001 C-52.51440049 274.04609084 -61.09584168 274.04210813 -69.67736084 274.02616997 C-74.57377143 274.01748618 -79.46995968 274.01523939 -84.36635936 274.03043929 C-88.81628941 274.04412355 -93.26580485 274.03957053 -97.71571018 274.0201541 C-99.31977483 274.0164027 -100.92387244 274.01942487 -102.52790749 274.02986718 C-104.70017274 274.04303986 -106.8709795 274.03167813 -109.0431822 274.01411621 C-110.24756999 274.01406891 -111.45195778 274.01402161 -112.69284216 274.01397288 C-117.4664477 273.28814442 -120.58506295 271.05520928 -123.79440147 267.51387022 C-126.18535619 263.48699912 -126.11058688 259.61834314 -126.12234337 255.00382993 C-126.12531449 254.35157694 -126.12828561 253.69932394 -126.13134677 253.0273057 C-126.14001363 250.8429639 -126.14154039 248.65867706 -126.14303429 246.47431944 C-126.14766437 244.90689475 -126.15268928 243.33947119 -126.15807945 241.77204893 C-126.17119846 237.51088294 -126.17764896 233.24973272 -126.18209011 228.98854969 C-126.18502531 226.31962084 -126.18913124 223.65069624 -126.19359428 220.98176954 C-126.20727596 212.6128338 -126.21693592 204.24390785 -126.22079618 195.87496171 C-126.22526054 186.25109348 -126.24272974 176.62736845 -126.27179677 167.00354371 C-126.29353137 159.54506644 -126.30350691 152.08662907 -126.30483729 144.62812052 C-126.30587814 140.18418753 -126.31162886 135.740389 -126.32965691 131.29648969 C-126.34633942 127.10214579 -126.34819718 122.90803439 -126.3395179 118.7136688 C-126.33875782 117.18929029 -126.34295085 115.66489823 -126.35297615 114.1405525 C-126.44151109 99.81681932 -125.12001839 85.18986009 -119.79440147 71.76387022 C-119.49396935 70.98148985 -119.19353722 70.19910947 -118.88400108 69.39302061 C-114.31969256 57.89359344 -108.07665449 47.88842608 -99.98190147 38.51387022 C-99.09631554 37.41172178 -99.09631554 37.41172178 -98.19283897 36.28730772 C-73.26985006 6.27366575 -36.87040645 -0.13354771 0 0 Z M0.33059853 98.95137022 C-11.70616013 112.28940008 -16.01349631 126.45746973 -15.17721397 144.19013975 C-13.99615042 158.24184334 -5.89597199 169.99504504 4.01809853 179.51387022 C16.13935348 189.42352778 30.66732272 192.57661623 46.01809853 191.51387022 C60.69112686 189.36879605 73.58134002 181.41021752 82.76809853 169.88887022 C91.97444843 157.09333145 94.76532198 142.7444344 92.55716103 127.28730772 C89.25741968 112.57434337 81.35356993 100.43388968 68.97903603 91.75215147 C46.02148193 77.25505058 20.09563961 81.0249376 0.33059853 98.95137022 Z M179.39309853 97.95137022 C178.60934853 98.79699522 177.82559853 99.64262022 177.01809853 100.51387022 C176.29493446 101.26410459 176.29493446 101.26410459 175.55716103 102.02949522 C171.26288915 106.69433878 168.50823155 111.70355983 166.01809853 117.51387022 C165.6958329 118.23832334 165.37356728 118.96277647 165.04153603 119.70918272 C160.44073819 132.04964046 161.80819014 147.66579195 167.01809853 159.51387022 C173.65418944 173.27014379 184.3484421 183.49999309 198.69387978 188.89668272 C213.42278495 193.27099931 227.95194123 192.90813109 241.70559853 185.76387022 C256.49806368 177.06242013 265.37522713 166.11628089 270.01809853 149.51387022 C273.17993595 136.39734464 270.91679891 121.92443998 264.33059853 110.20137022 C255.20712961 96.43613642 244.01294664 87.80647422 228.01809853 83.51387022 C209.92465432 79.9918639 192.69856597 85.5962933 179.39309853 97.95137022 Z " fill="#607FFF" transform="translate(172.98190147429705,81.48612978309393)"/>
<path d="M0 0 C12.54 0 25.08 0 38 0 C41.23213927 7.1107064 44.365939 14.18447311 47.28515625 21.41796875 C48.07092187 23.3509284 48.85673042 25.2838706 49.64257812 27.21679688 C50.85690576 30.21141687 52.070174 33.20646155 53.2824707 36.2019043 C54.46815386 39.12920145 55.65772959 42.0548945 56.84765625 44.98046875 C57.20505386 45.86711716 57.56245148 46.75376556 57.93067932 47.6672821 C60.06557441 52.91123558 62.40391626 57.96769797 65 63 C65.64231567 61.41300293 65.64231567 61.41300293 66.29760742 59.79394531 C67.90913613 55.81273982 69.52147187 51.83186156 71.1340332 47.85107422 C71.82760769 46.13859622 72.52097256 44.42603331 73.21411133 42.71337891 C77.09594965 33.12229535 80.99818429 23.54182631 85 14 C85.51630302 12.75809416 86.03204264 11.51595372 86.546875 10.2734375 C86.94390625 9.31695312 87.3409375 8.36046875 87.75 7.375 C88.15734375 6.39273438 88.5646875 5.41046875 88.984375 4.3984375 C89.61324477 2.91333736 90.27875114 1.44249773 91 0 C103.54 0 116.08 0 129 0 C129 36.96 129 73.92 129 112 C119.1 112 109.2 112 99 112 C98.67 91.54 98.34 71.08 98 50 C96.68 53.96 95.36 57.92 94 62 C91.5 67.5 91.5 67.5 90.21875 70.21875 C88.95332075 73.10652444 87.95953757 75.99757599 87 79 C85.42281943 83.9350489 83.44083713 88.50832016 81.23046875 93.1875 C79.48033167 97.18781332 78.18339363 101.30051422 76.89453125 105.46875 C76 108 76 108 74 111 C72.02880859 111.34057617 72.02880859 111.34057617 69.6484375 111.29296875 C68.79765625 111.28330078 67.946875 111.27363281 67.0703125 111.26367188 C66.18085937 111.23853516 65.29140625 111.21339844 64.375 111.1875 C63.02921875 111.16719727 63.02921875 111.16719727 61.65625 111.14648438 C59.43690211 111.11106925 57.21874812 111.06168461 55 111 C52.78890762 105.51651878 50.61547599 100.02119584 48.5 94.5 C45.48111612 86.63622042 42.37344992 78.84419743 39 71.125 C36.59901355 65.57537816 34.56782651 59.99934458 32.76171875 54.23046875 C32.20159478 52.05471516 32.20159478 52.05471516 31 51 C30.67 71.13 30.34 91.26 30 112 C20.1 112 10.2 112 0 112 C0 75.04 0 38.08 0 0 Z " fill="#FCFDFF" transform="translate(489,163)"/>
<path d="M0 0 C13.86 0 27.72 0 42 0 C50.64290384 25.15182129 59.15923718 50.34320808 67.58350754 75.56885147 C68.37706766 77.94368777 69.17178791 80.31813295 69.96682739 82.69247437 C71.23092939 86.46818877 72.49194192 90.24492105 73.75055504 94.02246857 C74.22164738 95.43490191 74.69374501 96.84700039 75.16687965 98.25875092 C75.81768272 100.20142593 76.46437292 102.14547735 77.11083984 104.08959961 C77.47720551 105.18727158 77.84357117 106.28494354 78.22103882 107.4158783 C79 110 79 110 79 112 C68.11 112 57.22 112 46 112 C42.27027027 102.05405405 42.27027027 102.05405405 41.3125 99.3125 C41.06113281 98.60738281 40.80976562 97.90226562 40.55078125 97.17578125 C40 95 40 95 40 90 C27.46 90 14.92 90 2 90 C1.67 92.64 1.34 95.28 1 98 C0.39188283 100.32858201 -0.27194374 102.64358745 -1 104.9375 C-1.5259375 106.62166016 -1.5259375 106.62166016 -2.0625 108.33984375 C-3 111 -3 111 -4 112 C-6.3756852 112.0883967 -8.72208674 112.11530305 -11.09765625 112.09765625 C-12.16094398 112.09553383 -12.16094398 112.09553383 -13.24571228 112.09336853 C-15.51801712 112.08775443 -17.79022475 112.07519963 -20.0625 112.0625 C-21.59960796 112.05748681 -23.13671745 112.05292359 -24.67382812 112.04882812 C-28.44925642 112.03778042 -32.22461171 112.02050641 -36 112 C-35.00932994 103.93799537 -32.53946465 96.72049946 -29.61376953 89.20263672 C-27.23618351 83.08445735 -25.18604735 76.85716969 -23.12231445 70.62768555 C-22.43823625 68.56472029 -21.74774824 66.50397892 -21.05664062 64.44335938 C-18.75345185 57.53961833 -16.56975754 50.61843669 -14.5546875 43.625 C-11.90618224 34.45440178 -8.81904863 25.45259057 -5.6875 16.4375 C-3.810625 11.013125 -1.93375 5.58875 0 0 Z " fill="#FCFDFF" transform="translate(665,163)"/>
<path d="M0 0 C26.73 0 53.46 0 81 0 C81 7.92 81 15.84 81 24 C64.17 24 47.34 24 30 24 C30 30.6 30 37.2 30 44 C45.51 44 61.02 44 77 44 C77 51.92 77 59.84 77 68 C61.49 68 45.98 68 30 68 C30 74.6 30 81.2 30 88 C46.83 88 63.66 88 81 88 C81 95.92 81 103.84 81 112 C54.27 112 27.54 112 0 112 C0 75.04 0 38.08 0 0 Z " fill="#FEFEFF" transform="translate(845,163)"/>
<path d="M0 0 C32.01 0 64.02 0 97 0 C97 7.92 97 15.84 97 24 C85.78 24 74.56 24 63 24 C63 53.04 63 82.08 63 112 C53.1 112 43.2 112 33 112 C33 82.96 33 53.92 33 24 C22.11 24 11.22 24 0 24 C0 16.08 0 8.16 0 0 Z " fill="#FDFDFF" transform="translate(737,163)"/>
<path d="M0 0 C0.66 0 1.32 0 2 0 C2.2945105 1.01199463 2.2945105 1.01199463 2.5949707 2.04443359 C3.50039326 5.15474499 4.40644316 8.26487332 5.3125 11.375 C5.62123047 12.43589844 5.92996094 13.49679688 6.24804688 14.58984375 C6.55419922 15.64042969 6.86035156 16.69101563 7.17578125 17.7734375 C7.4795166 18.8159668 7.78325195 19.85849609 8.09619141 20.93261719 C9.19193593 24.65140006 10.32566263 28.3579874 11.47338867 32.06103516 C12 34 12 34 12 36 C4.74 36 -2.52 36 -10 36 C-4.77168043 14.83775413 -4.77168043 14.83775413 -2.375 8.625 C-1.26421635 5.69657037 -0.48105823 3.0787727 0 0 Z " fill="#6482FF" transform="translate(685,194)"/>
</svg>
